<svg viewBox="0 0 800 400" xmlns="http://www.w3.org/2000/svg">
  <!-- Definitions -->
  <defs>
    <!-- Neural gradient -->
    <linearGradient id="neuralGrad" x1="0%" y1="0%" x2="100%" y2="100%">
      <stop offset="0%" style="stop-color:#2c3e50;stop-opacity:0.9" />
      <stop offset="100%" style="stop-color:#8e44ad;stop-opacity:0.9" />
    </linearGradient>
    
    <!-- Starry Background -->
    <radialGradient id="starryBg" cx="50%" cy="50%" r="70%">
      <stop offset="0%" style="stop-color:#1b2735;stop-opacity:1" />
      <stop offset="100%" style="stop-color:#000000;stop-opacity:1" />
    </radialGradient>
    
    <!-- Glow Effect -->
    <filter id="glow">
      <feGaussianBlur stdDeviation="2.5" result="coloredBlur"/>
      <feMerge>
        <feMergeNode in="coloredBlur"/>
        <feMergeNode in="SourceGraphic"/>
      </feMerge>
    </filter>
  </defs>

  <!-- Starry Gradient Background -->
  <rect width="800" height="400" fill="url(#starryBg)" />

  <!-- Stars -->
  <g fill="#ffffff" opacity="0.5">
    <circle cx="100" cy="50" r="1" />
    <circle cx="700" cy="150" r="1.5" />
    <circle cx="300" cy="200" r="1" />
    <circle cx="600" cy="50" r="1" />
    <circle cx="400" cy="350" r="1.2" />
    <circle cx="250" cy="100" r="1" />
    <circle cx="750" cy="300" r="1" />
  </g>

  <!-- Grid pattern -->
  <g stroke="#ffffff" stroke-width="0.2" opacity="0.1">
    <g id="grid" transform="scale(0.5)">
      <line x1="0" y1="0" x2="0" y2="800" transform="translate(160,0)" />
      <line x1="0" y1="0" x2="0" y2="800" transform="translate(320,0)" />
      <line x1="0" y1="0" x2="0" y2="800" transform="translate(480,0)" />
      <line x1="0" y1="0" x2="0" y2="800" transform="translate(640,0)" />
      <line x1="0" y1="0" x2="800" y2="0" transform="translate(0,160)" />
      <line x1="0" y1="0" x2="800" y2="0" transform="translate(0,320)" />
      <line x1="0" y1="0" x2="800" y2="0" transform="translate(0,480)" />
      <line x1="0" y1="0" x2="800" y2="0" transform="translate(0,640)" />
    </g>
  </g>

  <!-- Neural Network Background -->
  <g transform="translate(0,0)">
    <!-- Layer 1 -->
    <g transform="translate(100,50)">
      <circle cx="0" cy="0" r="5" fill="#3498db" filter="url(#glow)" />
      <circle cx="0" cy="75" r="5" fill="#3498db" filter="url(#glow)" />
      <circle cx="0" cy="150" r="5" fill="#3498db" filter="url(#glow)" />
      <circle cx="0" cy="225" r="5" fill="#3498db" filter="url(#glow)" />
      <circle cx="0" cy="300" r="5" fill="#3498db" filter="url(#glow)" />
    </g>
    
    <!-- Layer 2 -->
    <g transform="translate(250,25)">
      <circle cx="0" cy="0" r="5" fill="#e74c3c" filter="url(#glow)" />
      <circle cx="0" cy="75" r="5" fill="#e74c3c" filter="url(#glow)" />
      <circle cx="0" cy="150" r="5" fill="#e74c3c" filter="url(#glow)" />
      <circle cx="0" cy="225" r="5" fill="#e74c3c" filter="url(#glow)" />
      <circle cx="0" cy="300" r="5" fill="#e74c3c" filter="url(#glow)" />
      <circle cx="0" cy="375" r="5" fill="#e74c3c" filter="url(#glow)" />
    </g>
    
    <!-- Layer 3 -->
    <g transform="translate(400,50)">
      <circle cx="0" cy="0" r="5" fill="#2ecc71" filter="url(#glow)" />
      <circle cx="0" cy="75" r="5" fill="#2ecc71" filter="url(#glow)" />
      <circle cx="0" cy="150" r="5" fill="#2ecc71" filter="url(#glow)" />
      <circle cx="0" cy="225" r="5" fill="#2ecc71" filter="url(#glow)" />
      <circle cx="0" cy="300" r="5" fill="#2ecc71" filter="url(#glow)" />
    </g>
    
    <!-- Layer 4 -->
    <g transform="translate(550,75)">
      <circle cx="0" cy="0" r="5" fill="#f1c40f" filter="url(#glow)" />
      <circle cx="0" cy="75" r="5" fill="#f1c40f" filter="url(#glow)" />
      <circle cx="0" cy="150" r="5" fill="#f1c40f" filter="url(#glow)" />
      <circle cx="0" cy="225" r="5" fill="#f1c40f" filter="url(#glow)" />
    </g>
    
    <!-- Neural Connections -->
    <g stroke="url(#neuralGrad)" stroke-width="0.7" opacity="0.5">
      <!-- Connect Layer 1 to 2 -->
      <path d="M105,50 L250,25" />
      <path d="M105,50 L250,100" />
      <path d="M105,125 L250,100" />
      <path d="M105,125 L250,175" />
      <path d="M105,200 L250,175" />
      <path d="M105,200 L250,250" />
      <path d="M105,275 L250,250" />
      <path d="M105,275 L250,325" />
      
      <!-- Connect Layer 2 to 3 -->
      <path d="M250,25 L400,50" />
      <path d="M250,100 L400,125" />
      <path d="M250,175 L400,200" />
      <path d="M250,250 L400,275" />
      <path d="M250,325 L400,275" />
      
      <!-- Connect Layer 3 to 4 -->
      <path d="M400,50 L550,75" />
      <path d="M400,125 L550,150" />
      <path d="M400,200 L550,225" />
      <path d="M400,275 L550,225" />
    </g>
  </g>

  <!-- Mathematical Formulas -->
  <g fill="#ffffff" opacity="0.9" font-family="Courier New" font-size="16">
    <text x="150" y="350">∂u/∂t + (u·∇)u = -∇p/ρ + ν∇²u</text>
    <text x="450" y="350">∇·σ + f = ρ(∂²u/∂t²)</text>
    <text x="300" y="380">L[u] = f(x) → NN(x;θ)</text>
  </g>

  <!-- Logo Text -->
  <g transform="translate(400,200)">
    <text x="0" y="0" font-family="Roboto" font-size="72" font-weight="bold" text-anchor="middle" fill="#ffffff" filter="url(#glow)">
      SciREX
    </text>
    <text x="0" y="40" font-family="Roboto" font-size="24" text-anchor="middle" fill="#ecf0f1">
      <svg viewBox="0 0 800 400" xmlns="http://www.w3.org/2000/svg">
  <!-- Definitions -->
  <defs>
    <!-- Neural gradient -->
    <linearGradient id="neuralGrad" x1="0%" y1="0%" x2="100%" y2="100%">
      <stop offset="0%" style="stop-color:#2c3e50;stop-opacity:0.9" />
      <stop offset="100%" style="stop-color:#8e44ad;stop-opacity:0.9" />
    </linearGradient>
    
    <!-- Starry Background -->
    <radialGradient id="starryBg" cx="50%" cy="50%" r="70%">
      <stop offset="0%" style="stop-color:#1b2735;stop-opacity:1" />
      <stop offset="100%" style="stop-color:#000000;stop-opacity:1" />
    </radialGradient>
    
    <!-- Glow Effect -->
    <filter id="glow">
      <feGaussianBlur stdDeviation="2.5" result="coloredBlur"/>
      <feMerge>
        <feMergeNode in="coloredBlur"/>
        <feMergeNode in="SourceGraphic"/>
      </feMerge>
    </filter>
  </defs>

  <!-- Starry Gradient Background -->
  <rect width="800" height="400" fill="url(#starryBg)" />

  <!-- Stars -->
  <g fill="#ffffff" opacity="0.5">
    <circle cx="100" cy="50" r="1" />
    <circle cx="700" cy="150" r="1.5" />
    <circle cx="300" cy="200" r="1" />
    <circle cx="600" cy="50" r="1" />
    <circle cx="400" cy="350" r="1.2" />
    <circle cx="250" cy="100" r="1" />
    <circle cx="750" cy="300" r="1" />
  </g>

  <!-- Grid pattern -->
  <g stroke="#ffffff" stroke-width="0.2" opacity="0.1">
    <g id="grid" transform="scale(0.5)">
      <line x1="0" y1="0" x2="0" y2="800" transform="translate(160,0)" />
      <line x1="0" y1="0" x2="0" y2="800" transform="translate(320,0)" />
      <line x1="0" y1="0" x2="0" y2="800" transform="translate(480,0)" />
      <line x1="0" y1="0" x2="0" y2="800" transform="translate(640,0)" />
      <line x1="0" y1="0" x2="800" y2="0" transform="translate(0,160)" />
      <line x1="0" y1="0" x2="800" y2="0" transform="translate(0,320)" />
      <line x1="0" y1="0" x2="800" y2="0" transform="translate(0,480)" />
      <line x1="0" y1="0" x2="800" y2="0" transform="translate(0,640)" />
    </g>
  </g>

  <!-- Neural Network Background -->
  <g transform="translate(0,0)">
    <!-- Layer 1 -->
    <g transform="translate(100,50)">
      <circle cx="0" cy="0" r="5" fill="#3498db" filter="url(#glow)" />
      <circle cx="0" cy="75" r="5" fill="#3498db" filter="url(#glow)" />
      <circle cx="0" cy="150" r="5" fill="#3498db" filter="url(#glow)" />
      <circle cx="0" cy="225" r="5" fill="#3498db" filter="url(#glow)" />
      <circle cx="0" cy="300" r="5" fill="#3498db" filter="url(#glow)" />
    </g>
    
    <!-- Layer 2 -->
    <g transform="translate(250,25)">
      <circle cx="0" cy="0" r="5" fill="#e74c3c" filter="url(#glow)" />
      <circle cx="0" cy="75" r="5" fill="#e74c3c" filter="url(#glow)" />
      <circle cx="0" cy="150" r="5" fill="#e74c3c" filter="url(#glow)" />
      <circle cx="0" cy="225" r="5" fill="#e74c3c" filter="url(#glow)" />
      <circle cx="0" cy="300" r="5" fill="#e74c3c" filter="url(#glow)" />
      <circle cx="0" cy="375" r="5" fill="#e74c3c" filter="url(#glow)" />
    </g>
    
    <!-- Layer 3 -->
    <g transform="translate(400,50)">
      <circle cx="0" cy="0" r="5" fill="#2ecc71" filter="url(#glow)" />
      <circle cx="0" cy="75" r="5" fill="#2ecc71" filter="url(#glow)" />
      <circle cx="0" cy="150" r="5" fill="#2ecc71" filter="url(#glow)" />
      <circle cx="0" cy="225" r="5" fill="#2ecc71" filter="url(#glow)" />
      <circle cx="0" cy="300" r="5" fill="#2ecc71" filter="url(#glow)" />
    </g>
    
    <!-- Layer 4 -->
    <g transform="translate(550,75)">
      <circle cx="0" cy="0" r="5" fill="#f1c40f" filter="url(#glow)" />
      <circle cx="0" cy="75" r="5" fill="#f1c40f" filter="url(#glow)" />
      <circle cx="0" cy="150" r="5" fill="#f1c40f" filter="url(#glow)" />
      <circle cx="0" cy="225" r="5" fill="#f1c40f" filter="url(#glow)" />
    </g>
    
    <!-- Neural Connections -->
    <g stroke="url(#neuralGrad)" stroke-width="0.7" opacity="0.5">
      <!-- Connect Layer 1 to 2 -->
      <path d="M105,50 L250,25" />
      <path d="M105,50 L250,100" />
      <path d="M105,125 L250,100" />
      <path d="M105,125 L250,175" />
      <path d="M105,200 L250,175" />
      <path d="M105,200 L250,250" />
      <path d="M105,275 L250,250" />
      <path d="M105,275 L250,325" />
      
      <!-- Connect Layer 2 to 3 -->
      <path d="M250,25 L400,50" />
      <path d="M250,100 L400,125" />
      <path d="M250,175 L400,200" />
      <path d="M250,250 L400,275" />
      <path d="M250,325 L400,275" />
      
      <!-- Connect Layer 3 to 4 -->
      <path d="M400,50 L550,75" />
      <path d="M400,125 L550,150" />
      <path d="M400,200 L550,225" />
      <path d="M400,275 L550,225" />
    </g>
  </g>

  <!-- Mathematical Formulas -->
  <g fill="#ffffff" opacity="0.9" font-family="Courier New" font-size="16">
    <text x="150" y="350">∂u/∂t + (u·∇)u = -∇p/ρ + ν∇²u</text>
    <text x="450" y="350">∇·σ + f = ρ(∂²u/∂t²)</text>
    <text x="300" y="380">L[u] = f(x) → NN(x;θ)</text>
  </g>

  <!-- Logo Text -->
  <g transform="translate(400,200)">
    <text x="0" y="0" font-family="Roboto" font-size="72" font-weight="bold" text-anchor="middle" fill="#ffffff" filter="url(#glow)">
      SciREX
    </text>
    <text x="0" y="70" font-family="Roboto" font-size="18" text-anchor="middle" fill="#bdc3c7">
      Powered by Airex Lab
    </text>
  </g>
</svg>

    </text>
    <text x="0" y="70" font-family="Roboto" font-size="18" text-anchor="middle" fill="#bdc3c7">
      Powered by Airex Lab
    </text>
  </g>
</svg>
